<svg width="29" height="29" viewBox="0 0 29 29" fill="none" xmlns="http://www.w3.org/2000/svg">
<path d="M13.1832 0.23978C10.4248 0.481109 7.79988 1.53498 5.64043 3.26812C3.48098 5.00127 1.88396 7.33584 1.05132 9.97662C0.218689 12.6174 0.187835 15.4458 0.962664 18.1041C1.73749 20.7624 3.2832 23.1313 5.40433 24.9111C7.52546 26.691 10.1267 27.8018 12.8792 28.1033C15.6317 28.4047 18.4118 27.8832 20.8678 26.6047C23.3239 25.3261 25.3457 23.3479 26.6775 20.9203C28.0094 18.4927 28.5914 15.7247 28.3501 12.9663C28.0265 9.26742 26.2467 5.84857 23.4024 3.46188C20.558 1.07519 16.8821 -0.0838315 13.1832 0.23978ZM12.8982 19.9295L7.48142 15.3843L8.92679 13.6618L12.621 16.7616L19.357 8.73402L21.0851 10.1749L12.8982 19.9295Z" fill="#3B70FF"/>
</svg>
