<svg width="29" height="29" viewBox="0 0 29 29" fill="none" xmlns="http://www.w3.org/2000/svg">
<path d="M13.1832 0.284702C10.4248 0.526031 7.79988 1.5799 5.64043 3.31304C3.48098 5.04619 1.88396 7.38076 1.05132 10.0215C0.218689 12.6623 0.187835 15.4907 0.962664 18.149C1.73749 20.8073 3.2832 23.1762 5.40433 24.956C7.52546 26.7359 10.1267 27.8468 12.8792 28.1482C15.6317 28.4497 18.4118 27.9281 20.8678 26.6496C23.3239 25.371 25.3457 23.3929 26.6775 20.9653C28.0094 18.5377 28.5914 15.7696 28.3501 13.0112C28.0265 9.31234 26.2467 5.89349 23.4024 3.5068C20.558 1.12012 16.8821 -0.0389097 13.1832 0.284702ZM12.8982 19.9745L7.48142 15.4293L8.92679 13.7067L12.621 16.8066L19.357 8.77894L21.0851 10.2198L12.8982 19.9745Z" fill="#FFED90"/>
</svg>
