<svg width="16" height="16" viewBox="0 0 16 16" fill="none" xmlns="http://www.w3.org/2000/svg">
<path d="M7.11111 0.888889C7.11111 0.653141 7.20476 0.427048 7.37146 0.260349C7.53816 0.0936504 7.76425 0 8 0C8.23575 0 8.46184 0.0936504 8.62854 0.260349C8.79524 0.427048 8.88889 0.653141 8.88889 0.888889V7.11111H15.1111C15.3469 7.11111 15.573 7.20476 15.7397 7.37146C15.9064 7.53816 16 7.76425 16 8C16 8.23575 15.9064 8.46184 15.7397 8.62854C15.573 8.79524 15.3469 8.88889 15.1111 8.88889H8.88889V15.1111C8.88889 15.3469 8.79524 15.573 8.62854 15.7397C8.46184 15.9064 8.23575 16 8 16C7.76425 16 7.53816 15.9064 7.37146 15.7397C7.20476 15.573 7.11111 15.3469 7.11111 15.1111V8.88889H0.888889C0.653141 8.88889 0.427048 8.79524 0.260349 8.62854C0.0936504 8.46184 0 8.23575 0 8C0 7.76425 0.0936504 7.53816 0.260349 7.37146C0.427048 7.20476 0.653141 7.11111 0.888889 7.11111H7.11111V0.888889Z" fill="white"/>
</svg>
