<svg width="22" height="21" viewBox="0 0 22 21" fill="none" xmlns="http://www.w3.org/2000/svg">
<g filter="url(#filter0_d_57_1790)">
<path d="M20.5008 1.45647L18.6148 0.192584C18.3644 0.0262735 18.0576 -0.0357652 17.7611 0.0199578C17.4646 0.0756809 17.2024 0.24466 17.0315 0.490152L7.79917 13.9263L3.55548 9.73859C3.34108 9.52933 3.0517 9.41196 2.75014 9.41196C2.44858 9.41196 2.1592 9.52933 1.9448 9.73859L0.334108 11.3311C0.228192 11.4355 0.144166 11.5595 0.0868374 11.6959C0.0295083 11.8324 0 11.9787 0 12.1264C0 12.2741 0.0295083 12.4204 0.0868374 12.5568C0.144166 12.6933 0.228192 12.8172 0.334108 12.9216L6.85776 19.3624C7.22445 19.7221 7.79812 20 8.31505 20C8.83199 20 9.35312 19.6786 9.68829 19.1975L20.8045 3.01688C20.9735 2.77011 21.0365 2.46725 20.9795 2.17473C20.9226 1.88221 20.7505 1.6239 20.5008 1.45647Z" fill="url(#paint0_linear_57_1790)"/>
</g>
<defs>
<filter id="filter0_d_57_1790" x="0" y="0" width="21.5" height="20.5" filterUnits="userSpaceOnUse" color-interpolation-filters="sRGB">
<feFlood flood-opacity="0" result="BackgroundImageFix"/>
<feColorMatrix in="SourceAlpha" type="matrix" values="0 0 0 0 0 0 0 0 0 0 0 0 0 0 0 0 0 0 127 0" result="hardAlpha"/>
<feOffset dx="0.5" dy="0.5"/>
<feComposite in2="hardAlpha" operator="out"/>
<feColorMatrix type="matrix" values="0 0 0 0 0.860661 0 0 0 0 0.672516 0 0 0 0 0 0 0 0 1 0"/>
<feBlend mode="normal" in2="BackgroundImageFix" result="effect1_dropShadow_57_1790"/>
<feBlend mode="normal" in="SourceGraphic" in2="effect1_dropShadow_57_1790" result="shape"/>
</filter>
<linearGradient id="paint0_linear_57_1790" x1="0" y1="10" x2="21" y2="10" gradientUnits="userSpaceOnUse">
<stop stop-color="#FFCF24"/>
<stop offset="0.5" stop-color="#FFED90"/>
<stop offset="1" stop-color="#FFCF24"/>
</linearGradient>
</defs>
</svg>
